{"title":"Arrow S04E06 Lost Souls 1080p HDTV X264-DIMENSION [rarbg]","uid":12745915,"size":3343844827,"categoryP":"video","categoryS":"hd___tv_shows","magnet":"?xt=urn:btih:000760b63a545994dbf7ebfe7f90c71c9533ee3c&amp;dn=Arrow+S04E06+Lost+Souls+1080p+HDTV+X264-DIMENSION+%5Brarbg%5D&amp;tr=udp%3A%2F%2Ftracker.leechers-paradise.org%3A6969&amp;tr=udp%3A%2F%2Fzer0day.ch%3A1337&amp;tr=udp%3A%2F%2Fopen.demonii.com%3A1337&amp;tr=udp%3A%2F%2Ftracker.coppersurfer.tk%3A6969&amp;tr=udp%3A%2F%2Fexodus.desync.com%3A6969","seeders":1,"leechers":0,"uploader":"cheerfulcaca","files":4,"time":1447307540,"description":"EPISODE 6 OFFICIAL SYNOPSIS:\n\n\nRAY PALMER RETURNS FROM THE DEAD — Felicity (Emily Bett Rickards) is frantic when she learns that Ray (guest star Brandon Routh) is alive and being held by Damien Darhk (guest star Neal McDonough). Felicity’s guilt over not finding Ray sooner causes tension between her and Oliver (Stephen Amell). Meanwhile, Sara (guest star Caity Lotz) joins Laurel (Katie Cassidy), Thea (Willa Holland) and the team on a rescue mission for Ray. However, the effects of the Lazarus Pit take over and threaten to jeopardize the entire operation. Donna Smoak (guest star Charlotte Ross) returns to Star City.\n\n\nSERIES INFO:\n\n\n8.1/10·IMDb\n8.8/10·TV.com\n\nWhen presumed-dead billionaire playboy Oliver Queen returns home to Starling City after five years stranded on a remote island in the Pacific, he hides the ways the experience has changed him. As he reconnects with those closest to him, including his sister, Thea, Oliver appears to be the same wealthy, carefree bachelor they've always known. At night, flanked by his devoted friend, Diggle, Oliver uses his secret persona -- that of a vigilante -- to right societal wrongs and transform the city to its former glory.\n\n\nMEDIA INFO:\n\n\nVideo:\n\nID : 1\nFormat : AVC\nFormat/Info : Advanced Video Codec\nFormat profile :   \nFormat settings, CABAC : Yes\nFormat settings, ReFrames : 4 frames\nCodec ID : V_MPEG4/ISO/AVC\nDuration : 42mn 27s\nBit rate : 9 910 Kbps\nWidth : 1 920 pixels\nHeight : 1 066 pixels\nDisplay aspect ratio : 16:9\nFrame rate mode : Constant\nFrame rate : 23.976 fps\nColor space : YUV\nChroma subsampling : 4:2:0\nBit depth : 8 bits\nScan type : Progressive\nBits/(Pixel*Frame) : 0.202\nStream size : 2.94 GiB (94%)\nWriting library : x264 core 148 r2638 7599210\nEncoding settings : cabac=1 / ref=4 / deblock=1:-2:-2 / analyse=0x3:0x113 / me=umh / subme=9 / psy=1 / psy_rd=1.00:0.00 / mixed_ref=1 / me_range=24 / chroma_me=1 / trellis=1 / 8x8dct=1 / cqm=0 / deadzone=21,11 / fast_pskip=0 / chroma_qp_offset=-2 / threads=18 / lookahead_threads=2 / sliced_threads=0 / nr=0 / decimate=1 / interlaced=0 / bluray_compat=0 / constrained_intra=0 / bframes=5 / b_pyramid=2 / b_adapt=2 / b_bias=0 / direct=3 / weightb=1 / open_gop=0 / weightp=2 / keyint=250 / keyint_min=23 / scenecut=40 / intra_refresh=0 / rc_lookahead=50 / rc=crf / mbtree=1 / crf=17.0 / qcomp=0.60 / qpmin=0 / qpmax=69 / qpstep=4 / ip_ratio=1.40 / aq=1:1.00\nLanguage : English\nDefault : No\nForced : No\n\n\nAudio:\n\nID : 2\nFormat : AC-3\nFormat/Info : Audio Coding 3\nMode extension : CM (complete main)\nFormat settings, Endianness : Big\nCodec ID : A_AC3\nDuration : 42mn 27s\nBit rate mode : Constant\nBit rate : 384 Kbps\nChannel(s) : 6 channels\nChannel positions : Front: L C R, Side: L R, LFE\nSampling rate : 48.0 KHz\nCompression mode : Lossy\nDelay relative to video : 24ms\nStream size : 117 MiB (4%)\nDefault : Yes\nForced : No\n\n\nDOWNLOADED FROM:  https://rarbg.to","torrent":{"xt":"urn:btih:000760b63a545994dbf7ebfe7f90c71c9533ee3c","amp;dn":"Arrow+S04E06+Lost+Souls+1080p+HDTV+X264-DIMENSION+%5Brarbg%5D","amp;tr":["udp%3A%2F%2Ftracker.leechers-paradise.org%3A6969","udp%3A%2F%2Fzer0day.ch%3A1337","udp%3A%2F%2Fopen.demonii.com%3A1337","udp%3A%2F%2Ftracker.coppersurfer.tk%3A6969","udp%3A%2F%2Fexodus.desync.com%3A6969"],"infoHash":"000760b63a545994dbf7ebfe7f90c71c9533ee3c","infoHashBuffer":{"type":"Buffer","data":[0,7,96,182,58,84,89,148,219,247,235,254,127,144,199,28,149,51,238,60]},"announce":[],"urlList":[]}}